<?xml version="1.0" standalone="no"?>
<!DOCTYPE svg PUBLIC "-//W3C//DTD SVG 20010904//EN"
 "http://www.w3.org/TR/2001/REC-SVG-20010904/DTD/svg10.dtd">
<svg version="1.0" xmlns="http://www.w3.org/2000/svg"
 width="512.000000pt" height="512.000000pt" viewBox="0 0 512.000000 512.000000"
 preserveAspectRatio="xMidYMid meet">

<g transform="translate(0.000000,512.000000) scale(0.100000,-0.100000)"
fill="#FFF" stroke="none">
<path d="M2525 4708 c-32 -18 -2408 -1888 -2427 -1910 -28 -32 -24 -92 8 -117
26 -20 38 -21 330 -21 l304 0 0 -1035 0 -1035 -295 0 c-356 0 -365 -2 -365
-95 0 -24 7 -39 26 -54 l27 -21 2434 0 2434 0 24 25 c32 31 32 75 1 112 l-24
28 -276 3 -276 3 0 1034 0 1035 274 0 273 0 27 26 c36 37 34 76 -6 118 -28 29
-2336 1849 -2408 1899 -28 20 -56 21 -85 5z m1235 -1122 l954 -751 -1077 -3
c-592 -1 -1560 -1 -2151 0 l-1074 3 1076 846 1075 847 121 -96 c67 -52 551
-433 1076 -846z m-1840 -1961 l0 -1035 -505 0 -505 0 0 1035 0 1035 505 0 505
0 0 -1035z m1180 0 l0 -1035 -505 0 -505 0 0 1035 0 1035 505 0 505 0 0 -1035z
m1180 0 l0 -1035 -505 0 -505 0 0 1035 0 1035 505 0 505 0 0 -1035z"/>
</g>
</svg>
