<?xml version="1.0" standalone="no"?>
<!DOCTYPE svg PUBLIC "-//W3C//DTD SVG 20010904//EN"
 "http://www.w3.org/TR/2001/REC-SVG-20010904/DTD/svg10.dtd">
<svg version="1.0" xmlns="http://www.w3.org/2000/svg"
 width="512.000000pt" height="512.000000pt" viewBox="0 0 512.000000 512.000000"
 preserveAspectRatio="xMidYMid meet">

<g transform="translate(0.000000,512.000000) scale(0.100000,-0.100000)"
fill="#fff" stroke="none">
<path d="M2260 4565 c-596 -72 -1151 -358 -1548 -798 -680 -752 -842 -1816
-417 -2733 73 -157 231 -410 297 -476 17 -17 122 -18 1962 -18 l1944 0 37 42
c124 144 302 476 378 705 94 282 130 506 130 803 0 423 -87 779 -279 1150
-379 729 -1103 1229 -1920 1325 -154 18 -436 18 -584 0z m680 -183 c248 -45
419 -101 645 -212 365 -179 676 -454 906 -799 359 -540 474 -1206 318 -1841
-65 -263 -164 -487 -322 -727 l-61 -93 -1872 0 -1873 0 -65 97 c-395 597 -491
1328 -265 2017 276 840 1008 1444 1904 1571 152 21 535 14 685 -13z"/>
<path d="M2179 3821 c-17 -18 -29 -40 -29 -56 0 -40 50 -85 95 -85 45 0 95 45
95 85 0 40 -50 85 -95 85 -27 0 -44 -8 -66 -29z"/>
<path d="M2844 3840 c-55 -22 -70 -95 -29 -135 24 -25 81 -34 120 -19 19 8 45
55 45 83 0 50 -83 94 -136 71z"/>
<path d="M1609 3607 c-46 -35 -50 -88 -10 -128 36 -36 70 -37 110 -3 61 51 29
144 -50 144 -19 0 -41 -6 -50 -13z"/>
<path d="M3414 3586 c-39 -33 -39 -89 0 -122 56 -49 140 -13 140 61 0 45 -39
85 -84 85 -16 0 -41 -11 -56 -24z"/>
<path d="M1141 3174 c-51 -43 -41 -122 19 -143 38 -13 70 -2 99 36 28 35 22
78 -15 111 -33 29 -65 28 -103 -4z"/>
<path d="M3855 3143 c-26 -29 -1099 -1278 -1110 -1291 -2 -2 -35 7 -75 19
-346 105 -642 -279 -448 -583 194 -305 647 -213 720 146 15 75 -2 169 -44 248
l-30 56 564 652 c309 359 569 662 576 674 29 49 -18 116 -81 116 -34 0 -45 -6
-72 -37z m-1199 -1451 c78 -40 118 -107 118 -197 0 -114 -72 -199 -187 -220
-128 -24 -257 89 -257 227 0 78 50 156 124 193 42 22 61 26 107 22 30 -3 73
-14 95 -25z"/>
<path d="M851 2604 c-46 -59 -11 -144 58 -144 52 0 86 36 86 92 0 51 -30 78
-85 78 -30 0 -43 -6 -59 -26z"/>
<path d="M4141 2584 c-45 -57 -12 -144 55 -144 47 0 70 14 82 49 22 62 -17
121 -79 121 -29 0 -42 -6 -58 -26z"/>
<path d="M840 2003 c-38 -14 -60 -47 -60 -88 0 -102 129 -118 164 -21 12 35
-13 87 -50 102 -18 8 -35 14 -36 13 -2 0 -10 -3 -18 -6z"/>
<path d="M4190 1960 c-27 -27 -35 -65 -20 -101 35 -84 160 -60 160 31 0 55
-31 90 -81 90 -25 0 -46 -7 -59 -20z"/>
<path d="M987 1380 c-34 -27 -41 -63 -22 -104 48 -100 189 -45 155 60 -21 62
-83 83 -133 44z"/>
<path d="M4017 1369 c-21 -12 -47 -61 -47 -89 0 -31 53 -80 85 -80 16 0 38 12
56 29 40 40 41 100 3 130 -29 23 -68 27 -97 10z"/>
</g>
</svg>
