<?xml version="1.0" standalone="no"?>
<!DOCTYPE svg PUBLIC "-//W3C//DTD SVG 20010904//EN"
 "http://www.w3.org/TR/2001/REC-SVG-20010904/DTD/svg10.dtd">
<svg version="1.0" xmlns="http://www.w3.org/2000/svg"
 width="512.000000pt" height="512.000000pt" viewBox="0 0 512.000000 512.000000"
 preserveAspectRatio="xMidYMid meet">

<g transform="translate(0.000000,512.000000) scale(0.100000,-0.100000)"
fill="#fff" stroke="none">
<path d="M884 4471 c-47 -12 -133 -62 -160 -94 -14 -17 -37 -53 -52 -81 l-27
-51 0 -1685 0 -1685 27 -51 c40 -76 70 -107 140 -145 l63 -34 632 0 c622 0
632 0 659 21 44 32 66 68 71 116 7 58 -15 108 -63 144 l-37 29 -589 3 -588 2
0 1600 0 1600 589 2 c578 3 590 3 617 24 44 32 66 68 71 116 7 58 -15 108 -63
144 l-37 29 -611 2 c-336 0 -625 -2 -642 -6z"/>
<path d="M3425 3545 c-75 -27 -115 -100 -100 -182 6 -33 47 -79 308 -340 l301
-303 -956 -2 c-948 -3 -957 -3 -984 -24 -52 -39 -69 -71 -69 -133 0 -48 5 -64
29 -95 53 -70 -5 -66 1038 -66 l943 0 -302 -302 c-326 -327 -325 -326 -308
-415 9 -49 69 -109 118 -118 92 -17 74 -32 569 463 401 402 458 462 463 495
17 92 30 76 -443 550 -240 241 -450 446 -467 457 -43 26 -94 32 -140 15z"/>
</g>
</svg>
