<?xml version="1.0" standalone="no"?>
<!DOCTYPE svg PUBLIC "-//W3C//DTD SVG 20010904//EN"
 "http://www.w3.org/TR/2001/REC-SVG-20010904/DTD/svg10.dtd">
<svg version="1.0" xmlns="http://www.w3.org/2000/svg"
 width="512.000000pt" height="512.000000pt" viewBox="0 0 512.000000 512.000000"
 preserveAspectRatio="xMidYMid meet">

<g transform="translate(0.000000,512.000000) scale(0.100000,-0.100000)"
fill="#FFFFFF" stroke="none">
<path d="M2453 4900 c-100 -11 -212 -37 -313 -72 -445 -157 -773 -559 -845
-1038 -45 -294 22 -573 202 -844 74 -111 240 -289 344 -368 38 -29 69 -56 69
-60 0 -3 -19 -9 -42 -13 -65 -11 -252 -72 -358 -117 -680 -288 -1169 -925
-1273 -1658 -24 -168 -30 -299 -16 -355 17 -67 86 -137 151 -153 35 -9 582
-12 2191 -12 2410 0 2213 -6 2285 76 58 65 66 108 52 286 -58 773 -509 1440
-1205 1778 -112 54 -290 118 -407 145 -43 10 -78 21 -78 24 0 4 31 30 69 59
167 128 364 367 445 543 83 179 109 298 110 494 0 165 -14 256 -64 407 -124
373 -423 676 -793 807 -169 59 -375 87 -524 71z m319 -230 c598 -122 971 -719
819 -1313 -99 -383 -408 -680 -807 -773 -124 -30 -358 -25 -486 9 -584 155
-927 751 -762 1325 104 363 398 650 759 741 106 26 120 28 258 30 85 1 147 -5
219 -19z m144 -2330 c368 -30 702 -153 990 -366 461 -339 751 -870 781 -1426
l6 -118 -2131 0 -2132 0 0 68 c0 306 123 690 314 982 321 489 861 811 1443
859 146 12 582 12 729 1z"/>
</g>
</svg>
